<?xml version='1.0' encoding='UTF-8'?>
<!-- Created with Inkscape (http://www.inkscape.org/) -->
<svg xmlns:inkscape="http://www.inkscape.org/namespaces/inkscape" xmlns:sodipodi="http://sodipodi.sourceforge.net/DTD/sodipodi-0.dtd" xmlns="http://www.w3.org/2000/svg" xmlns:svg="http://www.w3.org/2000/svg" width="210mm" height="297mm" viewBox="0 0 210 297" version="1.1" id="svg1" inkscape:version="1.4.3 (0d15f75, 2025-12-25)" sodipodi:docname="example.svg">
  <sodipodi:namedview id="namedview1" pagecolor="#505050" bordercolor="#eeeeee" borderopacity="1" inkscape:showpageshadow="0" inkscape:pageopacity="0" inkscape:pagecheckerboard="0" inkscape:deskcolor="#505050" inkscape:document-units="mm" inkscape:zoom="1.4979692" inkscape:cx="455.28306" inkscape:cy="500.01028" inkscape:window-width="1718" inkscape:window-height="1360" inkscape:window-x="1706" inkscape:window-y="0" inkscape:window-maximized="0" inkscape:current-layer="layer2"/>
  <defs id="defs1"/>
  <g inkscape:label="paths" inkscape:groupmode="layer" id="layer1">
    <path style="opacity:0.5;fill:none;stroke:#bcbcbc;stroke-width:2.05;stroke-linecap:round;stroke-linejoin:bevel;stroke-dasharray:none" d="m 89.174935,32.972245 c -9.131302,1.483368 -11.944777,10.237266 -9.582262,18.240997 2.12867,8.580382 10.719568,13.652498 18.352046,16.876979 6.546551,1.807393 13.578281,2.704258 19.383351,6.534553 5.65734,4.937646 11.23283,9.843138 12.60084,17.910178 1.89388,5.973937 5.89331,18.564678 -4.36495,18.502158 -12.353,0.46163 -24.74524,-0.31443 -37.084667,0.24082 -7.643561,0.19145 -15.361254,4.18521 -12.523013,13.143 -3.508713,10.81306 9.375169,10.27551 16.483783,10.52298 9.841597,0.47194 20.945157,-1.16265 29.241687,5.27938 6.48341,8.09058 4.03118,19.11143 4.50187,28.68091 -1.29553,9.54148 -12.21812,7.82026 -19.27361,8.19672 -7.220451,-0.99158 -17.667881,-0.016 -14.238019,9.99159 -1.233321,9.07937 5.422313,17.59105 13.740429,20.46641 4.62331,2.30434 10.80857,0.0535 15.73476,1.2653" id="path1"/>
    <path style="opacity:0.5;fill:none;stroke:#bcbcbc;stroke-width:2.05;stroke-linecap:round;stroke-linejoin:bevel;stroke-dasharray:none" d="m 49.708157,94.420519 c 3.764033,-2.783708 5.555668,-8.371113 6.583271,-13.109364 0.877668,-4.096691 2.297423,-11.330609 8.037787,-9.996978 7.19173,3.061685 16.760044,1.752137 22.078781,-4.30721 2.008391,-3.501749 4.623983,-6.164159 7.028226,-9.426233 2.98754,-4.396012 8.044978,-7.146976 13.467518,-6.544761 5.50539,-1.746803 9.62673,2.722391 7.90447,8.134414 -0.96094,3.702332 -1.5127,7.701568 -1.76628,11.657449 -0.33666,9.236448 -0.67199,18.466746 -0.52988,27.715301 -0.96783,4.767123 1.13706,9.183333 5.12221,11.672743 3.50288,4.49139 8.52425,7.61134 13.72825,9.70564 0.61111,0.8743 8.53053,2.13853 11.96705,1.84636 5.47504,-0.079 11.29228,0.59137 16.12358,-2.58463 3.71559,-2.5283 7.54518,-5.6084 8.8997,-10.08861 1.81643,-5.64267 3.53524,-11.426303 2.97634,-17.424698 0.41381,-6.931704 -0.0505,-13.870575 -0.29975,-20.791918 -2.53911,-4.869351 -8.33752,-6.312238 -13.35017,-7.622881 -5.37685,-0.812297 -10.92051,-0.966165 -16.37668,-1.349988 -4.42678,-0.108171 -9.25697,0.164874 -13.07064,-2.204884 -0.0704,-1.385548 -4.43707,-2.008578 -6.73799,-3.125189 -1.76978,-1.546949 -4.74464,-1.511003 -6.68574,-1.820396" id="path2"/>
    <path style="opacity:0.5;fill:none;stroke:#bcbcbc;stroke-width:2.05;stroke-linecap:round;stroke-linejoin:bevel;stroke-dasharray:none" d="m 178.34987,146.37679 c -10.54271,-1.48552 -21.32922,-0.11785 -31.96458,-0.54534 -5.54136,4.52405 -12.60622,5.89462 -19.87066,4.97011 -7.72992,1.12881 -11.33719,3.95639 -20.20088,4.30494 -9.179166,1.53397 -18.380713,2.91833 -27.67871,3.34528 -1.033616,1.40422 -11.594028,1.87177 -17.465539,1.81521 -2.184451,0.16398 -4.374854,0.42328 -6.465548,1.09718" id="path3"/>
  </g>
  <g inkscape:groupmode="layer" id="layer2" inkscape:label="Locations">
    <text xml:space="preserve" style="font-size:7.7611px;font-family:'Segoe UI';-inkscape-font-specification:'Segoe UI';writing-mode:lr-tb;direction:ltr;opacity:0.5;fill:#ffffff;fill-opacity:1;stroke:none;stroke-width:2.05;stroke-linecap:round;stroke-linejoin:bevel;stroke-dasharray:0.55, 1.1" x="90.673676" y="31.473507" id="text3"><tspan sodipodi:role="line" id="tspan3" style="fill:#ffffff;fill-opacity:1;stroke:none;stroke-width:2.05" x="90.673676" y="31.473507">A</tspan></text>
    <text xml:space="preserve" style="font-size:7.7611px;font-family:'Segoe UI';-inkscape-font-specification:'Segoe UI';writing-mode:lr-tb;direction:ltr;opacity:0.5;fill:#ffffff;fill-opacity:1;stroke:none;stroke-width:2.05;stroke-linecap:round;stroke-linejoin:bevel;stroke-dasharray:0.55, 1.1" x="49.015091" y="92.975929" id="text4"><tspan sodipodi:role="line" id="tspan4" style="stroke-width:2.05" x="49.015091" y="92.975929">B</tspan></text>
    <text xml:space="preserve" style="font-size:7.7611px;font-family:'Segoe UI';-inkscape-font-specification:'Segoe UI';writing-mode:lr-tb;direction:ltr;opacity:0.5;fill:#ffffff;fill-opacity:1;stroke:none;stroke-width:2.05;stroke-linecap:round;stroke-linejoin:bevel;stroke-dasharray:0.55, 1.1" x="126.64339" y="150.12363" id="text5"><tspan sodipodi:role="line" id="tspan5" style="stroke-width:2.05" x="126.64339" y="150.12363">C</tspan></text>
    <text xml:space="preserve" style="font-size:7.7611px;font-family:'Segoe UI';-inkscape-font-specification:'Segoe UI';writing-mode:lr-tb;direction:ltr;opacity:0.5;fill:#ffffff;fill-opacity:1;stroke:none;stroke-width:2.05;stroke-linecap:round;stroke-linejoin:bevel;stroke-dasharray:0.55, 1.1" x="153.45572" y="119.68085" id="text6"><tspan sodipodi:role="line" id="tspan6" style="stroke-width:2.05" x="153.45572" y="119.68085">D</tspan></text>
    <text xml:space="preserve" style="font-size:7.7611px;font-family:'Segoe UI';-inkscape-font-specification:'Segoe UI';writing-mode:lr-tb;direction:ltr;opacity:0.5;fill:#ffffff;fill-opacity:1;stroke:none;stroke-width:2.05;stroke-linecap:round;stroke-linejoin:bevel;stroke-dasharray:0.55, 1.1" x="120.14886" y="206.32632" id="text7"><tspan sodipodi:role="line" id="tspan7" style="stroke-width:2.05" x="120.14886" y="206.32632">E</tspan></text>
  </g>
<g inkscape:label="Pathfinding Nodes" inkscape:groupmode="layer" id="pathfinding_layer"><line x1="89.174935" y1="32.972245" x2="88.98944185666406" y2="63.35689293271522" style="stroke:#000000;stroke-width:0.3;opacity:0.5;stroke-dasharray:1,1" id="edge_A_INT2"/><line x1="88.98944185666406" y1="63.35689293271522" x2="112.69541722713312" y2="72.2109296918092" style="stroke:#000000;stroke-width:0.3;opacity:0.5;stroke-dasharray:1,1" id="edge_INT2_INT3"/><line x1="112.69541722713312" y1="72.2109296918092" x2="118.25983450369455" y2="111.18547160039064" style="stroke:#000000;stroke-width:0.3;opacity:0.5;stroke-dasharray:1,1" id="edge_INT3_INT1"/><line x1="118.25983450369455" y1="111.18547160039064" x2="125.9799687924397" y2="151.45853701854548" style="stroke:#000000;stroke-width:0.3;opacity:0.5;stroke-dasharray:1,1" id="edge_INT1_C"/><line x1="125.9799687924397" y1="151.45853701854548" x2="119.81972024383377" y2="208.48323840846976" style="stroke:#000000;stroke-width:0.3;opacity:0.5;stroke-dasharray:1,1" id="edge_C_E"/><line x1="119.81972024383377" y1="208.48323840846976" x2="122.14717999999998" y2="208.82422000000022" style="stroke:#000000;stroke-width:0.3;opacity:0.5;stroke-dasharray:1,1" id="edge_E_EP_path1_1"/><line x1="49.93744857984901" y1="94.2455975700862" x2="88.98944185666406" y2="63.35689293271522" style="stroke:#000000;stroke-width:0.3;opacity:0.5;stroke-dasharray:1,1" id="edge_B_INT2"/><line x1="88.98944185666406" y1="63.35689293271522" x2="114.80821000000007" y2="54.75468599999998" style="stroke:#000000;stroke-width:0.3;opacity:0.5;stroke-dasharray:1,1" id="edge_INT2_EP_path2_1"/><line x1="114.80821000000007" y1="54.75468599999998" x2="112.69541722713312" y2="72.2109296918092" style="stroke:#000000;stroke-width:0.3;opacity:0.5;stroke-dasharray:1,1" id="edge_EP_path2_1_INT3"/><line x1="112.69541722713312" y1="72.2109296918092" x2="118.25983450369455" y2="111.18547160039064" style="stroke:#000000;stroke-width:0.3;opacity:0.5;stroke-dasharray:1,1" id="edge_INT3_INT1"/><line x1="118.25983450369455" y1="111.18547160039064" x2="153.68265948292753" y2="121.37406110414577" style="stroke:#000000;stroke-width:0.3;opacity:0.5;stroke-dasharray:1,1" id="edge_INT1_D"/><line x1="178.34987" y1="146.37679" x2="125.9799687924397" y2="151.45853701854548" style="stroke:#000000;stroke-width:0.3;opacity:0.5;stroke-dasharray:1,1" id="edge_EP_path3_0_C"/><line x1="125.9799687924397" y1="151.45853701854548" x2="54.70395299999999" y2="161.3641700000001" style="stroke:#000000;stroke-width:0.3;opacity:0.5;stroke-dasharray:1,1" id="edge_C_EP_path3_1"/><circle cx="118.25983450369455" cy="111.18547160039064" r="2.0" style="fill:#00ff00;stroke:#000000;stroke-width:0.5" id="node_INT1"/><text x="121.25983450369455" y="109.18547160039064" style="font-size:4px;font-family:sans-serif;fill:#000000" id="label_INT1">INT1</text><circle cx="88.98944185666406" cy="63.35689293271522" r="2.0" style="fill:#00ff00;stroke:#000000;stroke-width:0.5" id="node_INT2"/><text x="91.98944185666406" y="61.35689293271522" style="font-size:4px;font-family:sans-serif;fill:#000000" id="label_INT2">INT2</text><circle cx="112.69541722713312" cy="72.2109296918092" r="2.0" style="fill:#00ff00;stroke:#000000;stroke-width:0.5" id="node_INT3"/><text x="115.69541722713312" y="70.2109296918092" style="font-size:4px;font-family:sans-serif;fill:#000000" id="label_INT3">INT3</text><circle cx="89.174935" cy="32.972245" r="2.5" style="fill:#ff0000;stroke:#000000;stroke-width:0.5" id="node_A"/><text x="92.174935" y="30.972245" style="font-size:4px;font-family:sans-serif;fill:#000000" id="label_A">A</text><circle cx="49.93744857984901" cy="94.2455975700862" r="2.5" style="fill:#ff0000;stroke:#000000;stroke-width:0.5" id="node_B"/><text x="52.93744857984901" y="92.2455975700862" style="font-size:4px;font-family:sans-serif;fill:#000000" id="label_B">B</text><circle cx="125.9799687924397" cy="151.45853701854548" r="2.5" style="fill:#ff0000;stroke:#000000;stroke-width:0.5" id="node_C"/><text x="128.9799687924397" y="149.45853701854548" style="font-size:4px;font-family:sans-serif;fill:#000000" id="label_C">C</text><circle cx="153.68265948292753" cy="121.37406110414577" r="2.5" style="fill:#ff0000;stroke:#000000;stroke-width:0.5" id="node_D"/><text x="156.68265948292753" y="119.37406110414577" style="font-size:4px;font-family:sans-serif;fill:#000000" id="label_D">D</text><circle cx="119.81972024383377" cy="208.48323840846976" r="2.5" style="fill:#ff0000;stroke:#000000;stroke-width:0.5" id="node_E"/><text x="122.81972024383377" y="206.48323840846976" style="font-size:4px;font-family:sans-serif;fill:#000000" id="label_E">E</text><circle cx="122.14717999999998" cy="208.82422000000022" r="1.5" style="fill:#0000ff;stroke:#000000;stroke-width:0.5" id="node_EP_path1_1"/><circle cx="114.80821000000007" cy="54.75468599999998" r="1.5" style="fill:#0000ff;stroke:#000000;stroke-width:0.5" id="node_EP_path2_1"/><circle cx="178.34987" cy="146.37679" r="1.5" style="fill:#0000ff;stroke:#000000;stroke-width:0.5" id="node_EP_path3_0"/><circle cx="54.70395299999999" cy="161.3641700000001" r="1.5" style="fill:#0000ff;stroke:#000000;stroke-width:0.5" id="node_EP_path3_1"/><rect x="8" y="8" width="40" height="32" style="fill:#ffffff;stroke:#000000;stroke-width:0.5;opacity:0.8" id="legend_bg"/><text x="10" y="13" style="font-size:4px;font-family:sans-serif;font-weight:bold;fill:#000000" id="legend_title">Node Types</text><circle cx="12" cy="18" r="2.5" style="fill:#ff0000;stroke:#000000;stroke-width:0.3" id="legend_location_circle"/><text x="16" y="19.5" style="font-size:3px;font-family:sans-serif;fill:#000000" id="legend_location_text">Location</text><circle cx="12" cy="24" r="2.0" style="fill:#00ff00;stroke:#000000;stroke-width:0.3" id="legend_intersection_circle"/><text x="16" y="25.5" style="font-size:3px;font-family:sans-serif;fill:#000000" id="legend_intersection_text">Intersection</text><circle cx="12" cy="30" r="1.5" style="fill:#0000ff;stroke:#000000;stroke-width:0.3" id="legend_endpoint_circle"/><text x="16" y="31.5" style="font-size:3px;font-family:sans-serif;fill:#000000" id="legend_endpoint_text">Endpoint</text><circle cx="12" cy="36" r="1.0" style="fill:#888888;stroke:#000000;stroke-width:0.3" id="legend_path_node_circle"/><text x="16" y="37.5" style="font-size:3px;font-family:sans-serif;fill:#000000" id="legend_path_node_text">Path Node</text></g></svg>
