<?xml version="1.0" encoding="UTF-8" standalone="no"?>
<!-- Created with Inkscape (http://www.inkscape.org/) -->

<svg
   width="210mm"
   height="297mm"
   viewBox="0 0 210 297"
   version="1.1"
   id="svg1"
   inkscape:version="1.4.3 (0d15f75, 2025-12-25)"
   sodipodi:docname="example.svg"
   xmlns:inkscape="http://www.inkscape.org/namespaces/inkscape"
   xmlns:sodipodi="http://sodipodi.sourceforge.net/DTD/sodipodi-0.dtd"
   xmlns="http://www.w3.org/2000/svg"
   xmlns:svg="http://www.w3.org/2000/svg">
  <sodipodi:namedview
     id="namedview1"
     pagecolor="#505050"
     bordercolor="#eeeeee"
     borderopacity="1"
     inkscape:showpageshadow="0"
     inkscape:pageopacity="0"
     inkscape:pagecheckerboard="0"
     inkscape:deskcolor="#505050"
     inkscape:document-units="mm"
     inkscape:zoom="1.4979692"
     inkscape:cx="455.28306"
     inkscape:cy="500.01028"
     inkscape:window-width="1718"
     inkscape:window-height="1360"
     inkscape:window-x="1706"
     inkscape:window-y="0"
     inkscape:window-maximized="0"
     inkscape:current-layer="layer2" />
  <defs
     id="defs1" />
  <g
     inkscape:label="paths"
     inkscape:groupmode="layer"
     id="layer1">
    <path
       style="opacity:0.5;fill:none;stroke:#bcbcbc;stroke-width:2.05;stroke-linecap:round;stroke-linejoin:bevel;stroke-dasharray:none"
       d="m 89.174935,32.972245 c -9.131302,1.483368 -11.944777,10.237266 -9.582262,18.240997 2.12867,8.580382 10.719568,13.652498 18.352046,16.876979 6.546551,1.807393 13.578281,2.704258 19.383351,6.534553 5.65734,4.937646 11.23283,9.843138 12.60084,17.910178 1.89388,5.973937 5.89331,18.564678 -4.36495,18.502158 -12.353,0.46163 -24.74524,-0.31443 -37.084667,0.24082 -7.643561,0.19145 -15.361254,4.18521 -12.523013,13.143 -3.508713,10.81306 9.375169,10.27551 16.483783,10.52298 9.841597,0.47194 20.945157,-1.16265 29.241687,5.27938 6.48341,8.09058 4.03118,19.11143 4.50187,28.68091 -1.29553,9.54148 -12.21812,7.82026 -19.27361,8.19672 -7.220451,-0.99158 -17.667881,-0.016 -14.238019,9.99159 -1.233321,9.07937 5.422313,17.59105 13.740429,20.46641 4.62331,2.30434 10.80857,0.0535 15.73476,1.2653"
       id="path1" />
    <path
       style="opacity:0.5;fill:none;stroke:#bcbcbc;stroke-width:2.05;stroke-linecap:round;stroke-linejoin:bevel;stroke-dasharray:none"
       d="m 49.708157,94.420519 c 3.764033,-2.783708 5.555668,-8.371113 6.583271,-13.109364 0.877668,-4.096691 2.297423,-11.330609 8.037787,-9.996978 7.19173,3.061685 16.760044,1.752137 22.078781,-4.30721 2.008391,-3.501749 4.623983,-6.164159 7.028226,-9.426233 2.98754,-4.396012 8.044978,-7.146976 13.467518,-6.544761 5.50539,-1.746803 9.62673,2.722391 7.90447,8.134414 -0.96094,3.702332 -1.5127,7.701568 -1.76628,11.657449 -0.33666,9.236448 -0.67199,18.466746 -0.52988,27.715301 -0.96783,4.767123 1.13706,9.183333 5.12221,11.672743 3.50288,4.49139 8.52425,7.61134 13.72825,9.70564 0.61111,0.8743 8.53053,2.13853 11.96705,1.84636 5.47504,-0.079 11.29228,0.59137 16.12358,-2.58463 3.71559,-2.5283 7.54518,-5.6084 8.8997,-10.08861 1.81643,-5.64267 3.53524,-11.426303 2.97634,-17.424698 0.41381,-6.931704 -0.0505,-13.870575 -0.29975,-20.791918 -2.53911,-4.869351 -8.33752,-6.312238 -13.35017,-7.622881 -5.37685,-0.812297 -10.92051,-0.966165 -16.37668,-1.349988 -4.42678,-0.108171 -9.25697,0.164874 -13.07064,-2.204884 -0.0704,-1.385548 -4.43707,-2.008578 -6.73799,-3.125189 -1.76978,-1.546949 -4.74464,-1.511003 -6.68574,-1.820396"
       id="path2" />
    <path
       style="opacity:0.5;fill:none;stroke:#bcbcbc;stroke-width:2.05;stroke-linecap:round;stroke-linejoin:bevel;stroke-dasharray:none"
       d="m 178.34987,146.37679 c -10.54271,-1.48552 -21.32922,-0.11785 -31.96458,-0.54534 -5.54136,4.52405 -12.60622,5.89462 -19.87066,4.97011 -7.72992,1.12881 -11.33719,3.95639 -20.20088,4.30494 -9.179166,1.53397 -18.380713,2.91833 -27.67871,3.34528 -1.033616,1.40422 -11.594028,1.87177 -17.465539,1.81521 -2.184451,0.16398 -4.374854,0.42328 -6.465548,1.09718"
       id="path3" />
  </g>
  <g
     inkscape:groupmode="layer"
     id="layer2"
     inkscape:label="Locations">
    <text
       xml:space="preserve"
       style="font-size:7.7611px;font-family:'Segoe UI';-inkscape-font-specification:'Segoe UI';writing-mode:lr-tb;direction:ltr;opacity:0.5;fill:#ffffff;fill-opacity:1;stroke:none;stroke-width:2.05;stroke-linecap:round;stroke-linejoin:bevel;stroke-dasharray:0.55, 1.1"
       x="90.673676"
       y="31.473507"
       id="text3"><tspan
         sodipodi:role="line"
         id="tspan3"
         style="fill:#ffffff;fill-opacity:1;stroke:none;stroke-width:2.05"
         x="90.673676"
         y="31.473507">A</tspan></text>
    <text
       xml:space="preserve"
       style="font-size:7.7611px;font-family:'Segoe UI';-inkscape-font-specification:'Segoe UI';writing-mode:lr-tb;direction:ltr;opacity:0.5;fill:#ffffff;fill-opacity:1;stroke:none;stroke-width:2.05;stroke-linecap:round;stroke-linejoin:bevel;stroke-dasharray:0.55, 1.1"
       x="49.015091"
       y="92.975929"
       id="text4"><tspan
         sodipodi:role="line"
         id="tspan4"
         style="stroke-width:2.05"
         x="49.015091"
         y="92.975929">B</tspan></text>
    <text
       xml:space="preserve"
       style="font-size:7.7611px;font-family:'Segoe UI';-inkscape-font-specification:'Segoe UI';writing-mode:lr-tb;direction:ltr;opacity:0.5;fill:#ffffff;fill-opacity:1;stroke:none;stroke-width:2.05;stroke-linecap:round;stroke-linejoin:bevel;stroke-dasharray:0.55, 1.1"
       x="126.64339"
       y="150.12363"
       id="text5"><tspan
         sodipodi:role="line"
         id="tspan5"
         style="stroke-width:2.05"
         x="126.64339"
         y="150.12363">C</tspan></text>
    <text
       xml:space="preserve"
       style="font-size:7.7611px;font-family:'Segoe UI';-inkscape-font-specification:'Segoe UI';writing-mode:lr-tb;direction:ltr;opacity:0.5;fill:#ffffff;fill-opacity:1;stroke:none;stroke-width:2.05;stroke-linecap:round;stroke-linejoin:bevel;stroke-dasharray:0.55, 1.1"
       x="153.45572"
       y="119.68085"
       id="text6"><tspan
         sodipodi:role="line"
         id="tspan6"
         style="stroke-width:2.05"
         x="153.45572"
         y="119.68085">D</tspan></text>
    <text
       xml:space="preserve"
       style="font-size:7.7611px;font-family:'Segoe UI';-inkscape-font-specification:'Segoe UI';writing-mode:lr-tb;direction:ltr;opacity:0.5;fill:#ffffff;fill-opacity:1;stroke:none;stroke-width:2.05;stroke-linecap:round;stroke-linejoin:bevel;stroke-dasharray:0.55, 1.1"
       x="120.14886"
       y="206.32632"
       id="text7"><tspan
         sodipodi:role="line"
         id="tspan7"
         style="stroke-width:2.05"
         x="120.14886"
         y="206.32632">E</tspan></text>
  </g>
</svg>
